<?xml version="1.0" encoding="utf-8"?>
<!-- Generator: Adobe Illustrator 16.0.0, SVG Export Plug-In . SVG Version: 6.00 Build 0)  -->
<!DOCTYPE svg PUBLIC "-//W3C//DTD SVG 1.1//EN" "http://www.w3.org/Graphics/SVG/1.1/DTD/svg11.dtd">
<svg version="1.1" id="Layer_1" xmlns="http://www.w3.org/2000/svg" xmlns:xlink="http://www.w3.org/1999/xlink" x="0px" y="0px"
	 width="300px" height="300px" viewBox="0 0 300 300" enable-background="new 0 0 300 300" xml:space="preserve">
<g>
	<g>
		
			<linearGradient id="SVGID_1_" gradientUnits="userSpaceOnUse" x1="179.1631" y1="-224.1533" x2="455.742" y2="73.4966" gradientTransform="matrix(1 0 0 -1 -156 55)">
			<stop  offset="0" style="stop-color:#B1B7C2"/>
			<stop  offset="1" style="stop-color:#FFFFFF"/>
		</linearGradient>
		<path fill="url(#SVGID_1_)" d="M87.947,9.329c29.719-32.565,200.694,71.899,208.609,143.118
			c7.918,71.227-170.442,184.038-221.618,136.001C30.534,246.765,7.212,97.812,87.947,9.329z"/>
		
			<linearGradient id="SVGID_2_" gradientUnits="userSpaceOnUse" x1="120.0991" y1="-261.5825" x2="382.9905" y2="-1.4434" gradientTransform="matrix(1 0 0 -1 -156 55)">
			<stop  offset="0" style="stop-color:#EF184B"/>
			<stop  offset="1" style="stop-color:#FF9E15"/>
		</linearGradient>
		<path fill="url(#SVGID_2_)" d="M151.847,292.151C109.004,299.617-9.895,154.238,9.586,94.452
			C29.065,34.666,163.854,9.348,248.8,60.494C339.982,115.394,224.432,279.511,151.847,292.151z"/>
		<g>
			<path opacity="0.3" fill="#231F20" enable-background="new    " d="M221.506,87.181c47.991,20.702,20.572,131.256-14.417,158.642
				c-36.856,28.842-158.645,16.022-163.675-91.611C41.125,105.335,117.387,42.267,221.506,87.181z"/>
			<path opacity="0.6" fill="#231F20" enable-background="new    " d="M221.506,82.244c47.991,20.702,20.572,131.255-14.417,158.641
				c-36.856,28.844-158.645,16.024-163.675-91.609C41.125,100.397,117.387,37.33,221.506,82.244z"/>
			<path fill="#FFFFFF" d="M221.506,76.273c47.991,20.702,20.572,131.253-14.417,158.639
				c-36.856,28.85-158.645,16.025-163.675-91.607C41.125,94.427,117.387,31.359,221.506,76.273z"/>
			<path fill="#FFFFFF" d="M221.506,73.152c47.991,20.702,20.572,131.255-14.417,158.643
				c-36.856,28.842-158.645,16.022-163.675-91.611C41.125,91.308,117.387,28.24,221.506,73.152z"/>
			<g opacity="0.4">
				<path fill="#FFFFFF" d="M158.136,245.472c-27.298,0-54.506-8.725-74.652-23.945c-24.859-18.775-38.85-46.896-40.46-81.323
					c-0.743-15.878,6.843-33.379,20.813-48.02c21.096-22.107,53.179-34.787,88.018-34.787c22.631,0,46.121,5.181,69.804,15.4
					c13.815,5.96,22.516,19.917,25.155,40.366c5.209,40.352-14.348,99.266-39.485,118.938
					C196.47,240.6,178.538,245.472,158.136,245.472z M151.854,58.175c-34.627,0-66.504,12.591-87.455,34.546
					c-13.822,14.487-21.328,31.78-20.596,47.446c3.375,72.206,59.853,104.524,114.332,104.524c20.233,0,37.991-4.813,48.712-13.206
					c24.961-19.531,44.373-78.094,39.193-118.222c-2.604-20.162-11.14-33.909-24.686-39.752
					C197.761,63.334,174.381,58.175,151.854,58.175z"/>
			</g>
		</g>
	</g>
	<g>
		<g>
			<path fill="#FA7725" d="M98.353,133.901h1.358v17.023h10.733v1.254H98.353V133.901z"/>
			<path fill="#FA7725" d="M112.664,143.093v-0.054c0-4.988,3.682-9.452,9.22-9.452c5.537,0,9.166,4.412,9.166,9.4v0.051
				c0,4.989-3.681,9.455-9.218,9.455S112.664,148.08,112.664,143.093z M129.638,143.093v-0.054c0-4.518-3.29-8.225-7.808-8.225
				c-4.518,0-7.755,3.656-7.755,8.174v0.051c0,4.518,3.29,8.226,7.808,8.226C126.401,151.266,129.638,147.611,129.638,143.093z"/>
			<path fill="#FA7725" d="M135.671,133.901h7.678c2.246,0,4.047,0.705,5.145,1.8c0.861,0.864,1.384,2.09,1.384,3.396v0.051
				c0,3.055-2.271,4.805-5.354,5.222l6.032,7.808h-1.722l-5.824-7.573h-5.979v7.573h-1.358L135.671,133.901L135.671,133.901z
				 M143.193,143.38c3.056,0,5.327-1.541,5.327-4.178v-0.051c0-2.455-1.931-3.996-5.248-3.996h-6.242v8.226L143.193,143.38
				L143.193,143.38z"/>
			<path fill="#FA7725" d="M154.552,133.901h13.004v1.252h-11.646v7.182h10.473v1.255h-10.473v7.336h11.779v1.255h-13.137V133.901z"
				/>
			<path fill="#FA7725" d="M172.049,133.901h1.277l7.34,10.81l7.339-10.81h1.279v18.279h-1.359v-15.878l-7.233,10.524h-0.109
				l-7.231-10.524v15.878h-1.306v-18.279H172.049z"/>
		</g>
		<g>
			<path fill="#FA7725" d="M104.192,155.729h4.021v18.28h-4.021V155.729z"/>
			<path fill="#FA7725" d="M112.785,155.729h7.469c4.361,0,6.999,2.585,6.999,6.317v0.053c0,4.229-3.291,6.423-7.391,6.423h-3.055
				v5.485h-4.021V155.729z M119.991,164.946c2.011,0,3.185-1.201,3.185-2.768v-0.052c0-1.803-1.252-2.769-3.262-2.769h-3.108v5.59
				h3.185V164.946z"/>
			<path fill="#FA7725" d="M128.976,171.342l2.376-2.844c1.645,1.357,3.369,2.217,5.457,2.217c1.645,0,2.638-0.652,2.638-1.724
				v-0.048c0-1.021-0.625-1.544-3.682-2.326c-3.682-0.941-6.059-1.96-6.059-5.59v-0.051c0-3.315,2.664-5.511,6.397-5.511
				c2.664,0,4.937,0.837,6.791,2.325l-2.091,3.029c-1.617-1.123-3.211-1.803-4.751-1.803c-1.542,0-2.35,0.706-2.35,1.594v0.052
				c0,1.201,0.784,1.594,3.943,2.403c3.708,0.966,5.796,2.297,5.796,5.482v0.055c0,3.629-2.767,5.667-6.71,5.667
				C133.961,174.271,131.169,173.304,128.976,171.342z"/>
			<path fill="#FA7725" d="M146.656,166.173v-10.443h4.021v10.339c0,2.979,1.489,4.519,3.943,4.519c2.455,0,3.944-1.488,3.944-4.387
				v-10.471h4.021v10.314c0,5.537-3.107,8.253-8.017,8.253C149.658,174.297,146.656,171.552,146.656,166.173z"/>
			<path fill="#FA7725" d="M166.683,155.729h4.337l4.805,7.729l4.807-7.729h4.334v18.28h-3.996v-11.934l-5.146,7.805h-0.104
				l-5.093-7.729v11.857h-3.946v-18.28H166.683z"/>
		</g>
	</g>
</g>
</svg>
