<?xml version="1.0" encoding="utf-8"?>
<!-- Generator: Adobe Illustrator 16.0.0, SVG Export Plug-In . SVG Version: 6.00 Build 0)  -->
<!DOCTYPE svg PUBLIC "-//W3C//DTD SVG 1.1//EN" "http://www.w3.org/Graphics/SVG/1.1/DTD/svg11.dtd">
<svg version="1.1" id="Layer_1" xmlns="http://www.w3.org/2000/svg" xmlns:xlink="http://www.w3.org/1999/xlink" x="0px" y="0px"
	 width="300px" height="300px" viewBox="0 0 300 300" enable-background="new 0 0 300 300" xml:space="preserve">
<radialGradient id="SVGID_1_" cx="-180.0957" cy="6589.4395" r="110.9961" gradientTransform="matrix(1.3419 0 0 0.1795 391.5361 -902.5077)" gradientUnits="userSpaceOnUse">
	<stop  offset="0" style="stop-color:#E2E5E2"/>
	<stop  offset="0.2014" style="stop-color:#EFF1EE"/>
	<stop  offset="0.2857" style="stop-color:#F6F7F5"/>
	<stop  offset="0.3818" style="stop-color:#F8F9F7"/>
	<stop  offset="1" style="stop-color:#FFFFFE"/>
</radialGradient>
<path fill-rule="evenodd" clip-rule="evenodd" fill="url(#SVGID_1_)" d="M298.816,280.294c0,11.004-66.687,19.926-148.952,19.926
	c-82.264,0-148.951-8.922-148.951-19.926c0-11.001,66.687-19.92,148.951-19.92C232.13,260.374,298.816,269.293,298.816,280.294z"/>
<g>
	<g>
		<linearGradient id="SVGID_2_" gradientUnits="userSpaceOnUse" x1="31.0205" y1="239.25" x2="262.8681" y2="-10.2608">
			<stop  offset="0" style="stop-color:#B1B7C2"/>
			<stop  offset="1" style="stop-color:#FFFFFF"/>
		</linearGradient>
		<path fill="url(#SVGID_2_)" d="M85.327,13.064c24.913-27.299,168.237,60.271,174.872,119.972
			c6.638,59.707-142.877,154.275-185.776,114.006C37.199,212.099,17.649,87.237,85.327,13.064z"/>
		<linearGradient id="SVGID_3_" gradientUnits="userSpaceOnUse" x1="-18.4922" y1="270.626" x2="201.8835" y2="52.5575">
			<stop  offset="0" style="stop-color:#EF184B"/>
			<stop  offset="1" style="stop-color:#FF9E15"/>
		</linearGradient>
		<path fill="url(#SVGID_3_)" d="M138.893,250.146C102.979,256.405,3.309,134.537,19.639,84.42
			c16.329-50.117,129.319-71.341,200.527-28.466C296.602,101.975,199.738,239.55,138.893,250.146z"/>
		<g>
			<path opacity="0.3" fill="#231F20" d="M197.286,78.325c40.23,17.354,17.245,110.029-12.086,132.986
				c-30.896,24.177-132.987,13.431-137.204-76.795C46.077,93.543,110.006,40.675,197.286,78.325z"/>
			<path opacity="0.6" fill="#231F20" d="M197.286,74.186c40.23,17.354,17.245,110.028-12.086,132.985
				c-30.896,24.178-132.987,13.432-137.204-76.794C46.077,89.404,110.006,36.536,197.286,74.186z"/>
			<path fill="#FFFFFF" d="M197.286,69.181c40.23,17.354,17.245,110.026-12.086,132.983
				c-30.896,24.183-132.987,13.434-137.204-76.792C46.077,84.399,110.006,31.531,197.286,69.181z"/>
			<path fill="#FFFFFF" d="M197.286,66.565c40.23,17.354,17.245,110.028-12.086,132.986
				c-30.896,24.177-132.987,13.431-137.204-76.795C46.077,81.784,110.006,28.916,197.286,66.565z"/>
			<g opacity="0.4">
				<path fill="#FFFFFF" d="M144.164,211.015c-22.883,0-45.691-7.313-62.578-20.071c-20.839-15.74-32.567-39.313-33.917-68.172
					c-0.623-13.31,5.736-27.981,17.446-40.254c17.685-18.532,44.579-29.161,73.784-29.161c18.97,0,38.661,4.343,58.514,12.909
					c11.581,4.996,18.874,16.696,21.087,33.838c4.366,33.826-12.027,83.212-33.099,99.703
					C176.299,206.932,161.268,211.015,144.164,211.015z M138.899,54.01c-29.028,0-55.749,10.555-73.312,28.959
					C54,95.113,47.708,109.609,48.322,122.741c2.829,60.529,50.173,87.62,95.841,87.62c16.961,0,31.847-4.034,40.834-11.07
					c20.924-16.373,37.197-65.464,32.854-99.103c-2.182-16.901-9.337-28.425-20.693-33.323
					C177.381,58.335,157.782,54.01,138.899,54.01z"/>
			</g>
		</g>
	</g>
	<g>
		<g>
			<path fill="#FA7725" d="M94.05,117.489h1.138v14.271h8.997v1.051H94.05V117.489z"/>
			<path fill="#FA7725" d="M106.047,125.195v-0.045c0-4.181,3.086-7.924,7.729-7.924c4.641,0,7.683,3.699,7.683,7.88v0.043
				c0,4.182-3.086,7.925-7.727,7.925S106.047,129.375,106.047,125.195z M120.276,125.195v-0.045c0-3.787-2.758-6.895-6.545-6.895
				s-6.501,3.065-6.501,6.852v0.043c0,3.787,2.758,6.896,6.545,6.896S120.276,128.982,120.276,125.195z"/>
			<path fill="#FA7725" d="M125.333,117.489h6.436c1.883,0,3.393,0.591,4.313,1.509c0.722,0.724,1.16,1.752,1.16,2.847v0.043
				c0,2.561-1.904,4.028-4.488,4.378l5.057,6.545h-1.444l-4.882-6.348h-5.013v6.348h-1.138V117.489z M131.638,125.435
				c2.562,0,4.466-1.292,4.466-3.502v-0.043c0-2.058-1.619-3.35-4.399-3.35h-5.233v6.896H131.638z"/>
			<path fill="#FA7725" d="M141.16,117.489h10.901v1.05h-9.763v6.02h8.779v1.052h-8.779v6.15h9.874v1.051H141.16V117.489z"/>
			<path fill="#FA7725" d="M155.827,117.489h1.072l6.152,9.062l6.152-9.062h1.072v15.323h-1.139v-13.31l-6.063,8.822h-0.093
				l-6.061-8.822v13.31h-1.095V117.489z"/>
		</g>
		<g>
			<path fill="#FA7725" d="M98.945,135.787h3.371v15.324h-3.371V135.787z"/>
			<path fill="#FA7725" d="M106.148,135.787h6.261c3.656,0,5.867,2.167,5.867,5.296v0.044c0,3.546-2.759,5.385-6.196,5.385h-2.561
				v4.598h-3.371V135.787z M112.189,143.514c1.686,0,2.67-1.007,2.67-2.321v-0.043c0-1.511-1.05-2.321-2.735-2.321h-2.605v4.686
				H112.189z"/>
			<path fill="#FA7725" d="M119.72,148.875l1.992-2.384c1.379,1.138,2.824,1.858,4.574,1.858c1.379,0,2.211-0.546,2.211-1.444
				v-0.041c0-0.855-0.524-1.294-3.086-1.95c-3.087-0.789-5.079-1.642-5.079-4.685v-0.043c0-2.78,2.233-4.619,5.363-4.619
				c2.233,0,4.138,0.701,5.692,1.948l-1.752,2.54c-1.356-0.942-2.692-1.511-3.983-1.511c-1.292,0-1.97,0.592-1.97,1.336v0.043
				c0,1.006,0.657,1.336,3.306,2.015c3.108,0.809,4.858,1.925,4.858,4.595v0.046c0,3.042-2.319,4.751-5.625,4.751
				C123.9,151.33,121.559,150.519,119.72,148.875z"/>
			<path fill="#FA7725" d="M134.541,144.542v-8.755h3.371v8.667c0,2.497,1.248,3.788,3.306,3.788c2.058,0,3.306-1.248,3.306-3.678
				v-8.777h3.371v8.646c0,4.642-2.605,6.918-6.72,6.918C137.058,151.351,134.541,149.051,134.541,144.542z"/>
			<path fill="#FA7725" d="M151.329,135.787h3.636l4.027,6.479l4.029-6.479h3.634v15.324h-3.351v-10.004l-4.313,6.544h-0.087
				l-4.268-6.479v9.939h-3.309V135.787z"/>
		</g>
	</g>
</g>
</svg>
