<?xml version="1.0" encoding="utf-8"?>
<!-- Generator: Adobe Illustrator 16.0.0, SVG Export Plug-In . SVG Version: 6.00 Build 0)  -->
<!DOCTYPE svg PUBLIC "-//W3C//DTD SVG 1.1//EN" "http://www.w3.org/Graphics/SVG/1.1/DTD/svg11.dtd">
<svg version="1.1" id="Layer_1" xmlns="http://www.w3.org/2000/svg" xmlns:xlink="http://www.w3.org/1999/xlink" x="0px" y="0px"
	 width="300px" height="300px" viewBox="0 0 300 300" enable-background="new 0 0 300 300" xml:space="preserve">
<g>
	<g>
		<linearGradient id="SVGID_1_" gradientUnits="userSpaceOnUse" x1="-5.4048" y1="305.3799" x2="301.2947" y2="-21.0574">
			<stop  offset="0" style="stop-color:#B1B7C2"/>
			<stop  offset="1" style="stop-color:#FFFFFF"/>
		</linearGradient>
		<path fill="url(#SVGID_1_)" d="M87.9,12.162C116.85-19.562,283.402,82.2,291.112,151.576
			c7.711,69.382-166.031,179.276-215.88,132.48C31.972,243.451,9.256,98.354,87.9,12.162z"/>
		<linearGradient id="SVGID_2_" gradientUnits="userSpaceOnUse" x1="-32.7432" y1="311.4629" x2="223.3476" y2="58.0532">
			<stop  offset="0" style="stop-color:#1C1D1F"/>
			<stop  offset="1" style="stop-color:#595959"/>
		</linearGradient>
		<path fill="url(#SVGID_2_)" d="M150.146,287.663C108.416,294.938-7.41,153.32,11.569,95.081
			c18.973-58.239,150.272-82.903,233.026-33.08C333.412,115.48,220.854,275.351,150.146,287.663z"/>
		<g>
			<path opacity="0.3" fill="#231F20" d="M218.002,87.998c46.754,20.167,20.041,127.86-14.045,154.537
				C168.058,270.63,49.42,258.142,44.521,153.295C42.292,105.682,116.583,44.247,218.002,87.998z"/>
			<path opacity="0.6" fill="#231F20" d="M218.002,83.188c46.754,20.167,20.041,127.859-14.045,154.537
				c-35.899,28.095-154.537,15.607-159.436-89.24C42.292,100.872,116.583,39.437,218.002,83.188z"/>
			<path fill="#FFFFFF" d="M218.002,77.373c46.754,20.167,20.041,127.856-14.045,154.534
				c-35.899,28.101-154.537,15.61-159.436-89.237C42.292,95.057,116.583,33.621,218.002,77.373z"/>
			<path fill="#FFFFFF" d="M218.002,74.333c46.754,20.167,20.041,127.859-14.045,154.536
				c-35.899,28.096-154.537,15.607-159.436-89.24C42.292,92.018,116.583,30.582,218.002,74.333z"/>
			<g opacity="0.4">
				<path fill="#FFFFFF" d="M156.272,242.19c-26.588,0-53.094-8.499-72.719-23.323c-24.216-18.291-37.846-45.684-39.411-79.22
					c-0.724-15.466,6.666-32.517,20.272-46.777c20.551-21.536,51.801-33.887,85.744-33.887c22.045,0,44.921,5.047,67.998,15.001
					c13.457,5.805,21.927,19.401,24.501,39.322c5.076,39.307-13.979,96.696-38.463,115.859
					C193.62,237.445,176.153,242.19,156.272,242.19z M150.158,59.743c-33.736,0-64.784,12.265-85.193,33.652
					c-13.469,14.111-20.782,30.957-20.064,46.217c3.286,70.338,58.301,101.82,111.372,101.82c19.715,0,37.009-4.688,47.453-12.864
					c24.317-19.026,43.226-76.073,38.178-115.163c-2.538-19.64-10.854-33.031-24.05-38.723
					C194.877,64.769,172.097,59.743,150.158,59.743z"/>
			</g>
		</g>
	</g>
	<g>
		<g>
			<path fill="#3E3F40" d="M98.037,133.509h1.322v16.584h10.457v1.221H98.037V133.509z"/>
			<path fill="#3E3F40" d="M111.98,142.463v-0.052c0-4.859,3.588-9.208,8.979-9.208s8.926,4.298,8.926,9.157v0.05
				c0,4.859-3.583,9.21-8.979,9.21C115.515,151.621,111.98,147.32,111.98,142.463z M128.516,142.463v-0.052
				c0-4.401-3.208-8.013-7.609-8.013s-7.55,3.562-7.55,7.962v0.05c0,4.401,3.203,8.014,7.604,8.014S128.516,146.864,128.516,142.463
				z"/>
			<path fill="#3E3F40" d="M134.393,133.509h7.479c2.188,0,3.938,0.687,5.012,1.754c0.836,0.841,1.346,2.036,1.346,3.308v0.05
				c0,2.976-2.212,4.681-5.213,5.087l5.872,7.606h-1.679l-5.67-7.376h-5.824v7.376h-1.323V133.509z M141.718,142.742
				c2.978,0,5.19-1.5,5.19-4.07v-0.051c0-2.392-1.88-3.892-5.113-3.892h-6.079v8.013H141.718z"/>
			<path fill="#3E3F40" d="M152.785,133.509h12.668v1.22h-11.346v6.996h10.201v1.222h-10.201v7.147h11.471v1.221h-12.793V133.509z"
				/>
			<path fill="#3E3F40" d="M169.824,133.509h1.252l7.146,10.53l7.147-10.53h1.245v17.806h-1.322v-15.466l-7.046,10.251h-0.102
				l-7.046-10.251v15.466h-1.275V133.509z"/>
		</g>
		<g>
			<path fill="#3E3F40" d="M103.724,154.771h3.92v17.808h-3.92V154.771z"/>
			<path fill="#3E3F40" d="M112.099,154.771h7.271c4.252,0,6.821,2.518,6.821,6.153v0.054c0,4.121-3.209,6.257-7.2,6.257h-2.978
				v5.344h-3.915V154.771z M119.115,163.751c1.963,0,3.107-1.172,3.107-2.696v-0.053c0-1.754-1.222-2.695-3.179-2.695h-3.031v5.444
				H119.115z"/>
			<path fill="#3E3F40" d="M127.869,169.981l2.313-2.77c1.602,1.322,3.28,2.158,5.314,2.158c1.607,0,2.574-0.635,2.574-1.679v-0.047
				c0-0.993-0.611-1.504-3.588-2.266c-3.588-0.916-5.901-1.91-5.901-5.444v-0.051c0-3.23,2.592-5.367,6.233-5.367
				c2.592,0,4.804,0.813,6.613,2.264l-2.034,2.951c-1.578-1.095-3.132-1.756-4.632-1.756s-2.289,0.688-2.289,1.553v0.05
				c0,1.169,0.765,1.554,3.843,2.343c3.612,0.938,5.646,2.236,5.646,5.338v0.054c0,3.534-2.698,5.521-6.536,5.521
				C132.727,172.834,130.004,171.891,127.869,169.981z"/>
			<path fill="#3E3F40" d="M145.093,164.946v-10.175h3.914v10.073c0,2.9,1.453,4.401,3.843,4.401c2.391,0,3.844-1.45,3.844-4.276
				v-10.198h3.915v10.047c0,5.395-3.025,8.039-7.812,8.039C148.017,172.857,145.093,170.186,145.093,164.946z"/>
			<path fill="#3E3F40" d="M164.6,154.771h4.223l4.686,7.529l4.68-7.529h4.223v17.808h-3.891v-11.625l-5.012,7.604h-0.106
				l-4.959-7.529v11.551H164.6V154.771z"/>
		</g>
	</g>
</g>
</svg>
